<?xml version="1.0" encoding="UTF-8" standalone="no"?>
<!-- Created with Inkscape (http://www.inkscape.org/) -->

<svg
   xmlns:osb="http://www.openswatchbook.org/uri/2009/osb"
   xmlns:dc="http://purl.org/dc/elements/1.1/"
   xmlns:cc="http://creativecommons.org/ns#"
   xmlns:rdf="http://www.w3.org/1999/02/22-rdf-syntax-ns#"
   xmlns:svg="http://www.w3.org/2000/svg"
   xmlns="http://www.w3.org/2000/svg"
   xmlns:sodipodi="http://sodipodi.sourceforge.net/DTD/sodipodi-0.dtd"
   xmlns:inkscape="http://www.inkscape.org/namespaces/inkscape"
   width="5.8208299mm"
   height="5.8208299mm"
   viewBox="0 0 5.8208299 5.8208299"
   version="1.1"
   id="svg3736"
   inkscape:version="0.92.2 (5c3e80d, 2017-08-06)"
   sodipodi:docname="eyeBlueSelected.svg">
  <defs
     id="defs3730">
    <linearGradient
       id="linearGradient6792"
       osb:paint="solid">
      <stop
         style="stop-color:#000000;stop-opacity:1;"
         offset="0"
         id="stop6790" />
    </linearGradient>
  </defs>
  <sodipodi:namedview
     id="base"
     pagecolor="#ffffff"
     bordercolor="#666666"
     borderopacity="1.0"
     inkscape:pageopacity="0.0"
     inkscape:pageshadow="2"
     inkscape:zoom="11.2"
     inkscape:cx="17.860211"
     inkscape:cy="20.415639"
     inkscape:document-units="mm"
     inkscape:current-layer="layer1"
     showgrid="false"
     fit-margin-top="0"
     fit-margin-left="0"
     fit-margin-right="0"
     fit-margin-bottom="0"
     inkscape:window-width="1680"
     inkscape:window-height="1027"
     inkscape:window-x="1042"
     inkscape:window-y="398"
     inkscape:window-maximized="1" />
  <metadata
     id="metadata3733">
    <rdf:RDF>
      <cc:Work
         rdf:about="">
        <dc:format>image/svg+xml</dc:format>
        <dc:type
           rdf:resource="http://purl.org/dc/dcmitype/StillImage" />
        <dc:title></dc:title>
      </cc:Work>
    </rdf:RDF>
  </metadata>
  <g
     inkscape:label="Layer 1"
     inkscape:groupmode="layer"
     id="layer1"
     transform="translate(-81.000298,-79.229021)">
    <path
       id="path3701"
       d="m 83.910713,80.211547 c -1.322916,0 -2.452686,0.822855 -2.910415,1.984375 0.457729,1.161521 1.587499,1.984375 2.910415,1.984375 1.322916,0 2.452686,-0.822854 2.910415,-1.984375 -0.457729,-1.16152 -1.587499,-1.984375 -2.910415,-1.984375 z m 0,3.307292 c -0.730249,0 -1.322916,-0.592667 -1.322916,-1.322917 0,-0.73025 0.592667,-1.322916 1.322916,-1.322916 0.73025,0 1.322916,0.592666 1.322916,1.322916 0,0.73025 -0.592666,1.322917 -1.322916,1.322917 z m 0,-2.116667 c -0.439208,0 -0.793749,0.354542 -0.793749,0.79375 0,0.439209 0.354541,0.79375 0.793749,0.79375 0.439208,0 0.79375,-0.354541 0.79375,-0.79375 0,-0.439208 -0.354542,-0.79375 -0.79375,-0.79375 z"
       inkscape:connector-curvature="0"
       style="fill:#0000ff;stroke:none;stroke-width:0.26458332;stroke-opacity:1" />
    <path
       style="fill:#0000ff;stroke:none;stroke-width:0.26458332;stroke-opacity:1"
       inkscape:connector-curvature="0"
       d="m 83.910713,80.211547 c -1.322916,0 -2.452686,0.822855 -2.910415,1.984375 0.457729,1.161521 1.587499,1.984375 2.910415,1.984375 1.322916,0 2.452686,-0.822854 2.910415,-1.984375 -0.457729,-1.16152 -1.587499,-1.984375 -2.910415,-1.984375 z m 0,3.307292 c -0.730249,0 -1.322916,-0.592667 -1.322916,-1.322917 0,-0.73025 0.592667,-1.322916 1.322916,-1.322916 0.73025,0 1.322916,0.592666 1.322916,1.322916 0,0.73025 -0.592666,1.322917 -1.322916,1.322917 z m 0,-2.116667 c -0.439208,0 -0.793749,0.354542 -0.793749,0.79375 0,0.439209 0.354541,0.79375 0.793749,0.79375 0.439208,0 0.79375,-0.354541 0.79375,-0.79375 0,-0.439208 -0.354542,-0.79375 -0.79375,-0.79375 z"
       id="path6796" />
    <rect
       style="fill:#000000;fill-opacity:0;stroke:#000000;stroke-width:0.30532119;stroke-miterlimit:4;stroke-dasharray:none;stroke-dashoffset:0.40000001;stroke-opacity:1"
       id="rect6816"
       width="5.5050592"
       height="5.505599"
       x="80.983246"
       y="79.556557"
       rx="0.30531532"
       transform="matrix(0.99999795,-0.00202703,0.00212718,0.99999774,0,0)" />
  </g>
</svg>
