<?xml version="1.0" encoding="UTF-8" standalone="no"?>
<!-- Created with Inkscape (http://www.inkscape.org/) -->

<svg
   xmlns:dc="http://purl.org/dc/elements/1.1/"
   xmlns:cc="http://creativecommons.org/ns#"
   xmlns:rdf="http://www.w3.org/1999/02/22-rdf-syntax-ns#"
   xmlns:svg="http://www.w3.org/2000/svg"
   xmlns="http://www.w3.org/2000/svg"
   xmlns:sodipodi="http://sodipodi.sourceforge.net/DTD/sodipodi-0.dtd"
   xmlns:inkscape="http://www.inkscape.org/namespaces/inkscape"
   width="5.8208332mm"
   height="3.96875mm"
   viewBox="0 0 5.8208332 3.96875"
   version="1.1"
   id="svg3736"
   inkscape:version="0.92.2 (5c3e80d, 2017-08-06)"
   sodipodi:docname="eyeOff.svg">
  <defs
     id="defs3730">
    <clipPath
       clipPathUnits="userSpaceOnUse"
       id="clipPath4723">
      <rect
         style="fill:#000000;fill-opacity:1;stroke:none;stroke-width:0.26458332;stroke-opacity:1"
         id="rect4725"
         width="7.9531779"
         height="4.1353135"
         x="110.97965"
         y="26.788519"
         rx="0.2"
         transform="rotate(31.613607)" />
    </clipPath>
    <clipPath
       clipPathUnits="userSpaceOnUse"
       id="clipPath4708">
      <rect
         style="fill:#000000;fill-opacity:1;stroke:none;stroke-width:0.26458332;stroke-opacity:1"
         id="rect4710"
         width="7.9531779"
         height="4.1353135"
         x="111.22166"
         y="22.117361"
         rx="0.2"
         transform="rotate(31.613606)" />
    </clipPath>
  </defs>
  <sodipodi:namedview
     id="base"
     pagecolor="#ffffff"
     bordercolor="#666666"
     borderopacity="1.0"
     inkscape:pageopacity="0.0"
     inkscape:pageshadow="2"
     inkscape:zoom="15.839192"
     inkscape:cx="15.198481"
     inkscape:cy="11.38564"
     inkscape:document-units="mm"
     inkscape:current-layer="layer1"
     showgrid="false"
     fit-margin-top="0"
     fit-margin-left="0"
     fit-margin-right="0"
     fit-margin-bottom="0"
     inkscape:window-width="1680"
     inkscape:window-height="1027"
     inkscape:window-x="1042"
     inkscape:window-y="398"
     inkscape:window-maximized="1" />
  <metadata
     id="metadata3733">
    <rdf:RDF>
      <cc:Work
         rdf:about="">
        <dc:format>image/svg+xml</dc:format>
        <dc:type
           rdf:resource="http://purl.org/dc/dcmitype/StillImage" />
        <dc:title></dc:title>
      </cc:Work>
    </rdf:RDF>
  </metadata>
  <g
     inkscape:label="Layer 1"
     inkscape:groupmode="layer"
     id="layer1"
     transform="translate(-81.000298,-81.081101)">
    <path
       id="path3701"
       d="m 83.910715,81.081101 c -1.322917,0 -2.452688,0.822855 -2.910417,1.984375 0.457729,1.161521 1.5875,1.984375 2.910417,1.984375 1.322916,0 2.452687,-0.822854 2.910416,-1.984375 -0.457729,-1.16152 -1.5875,-1.984375 -2.910416,-1.984375 z m 0,3.307292 c -0.73025,0 -1.322917,-0.592667 -1.322917,-1.322917 0,-0.73025 0.592667,-1.322916 1.322917,-1.322916 0.73025,0 1.322916,0.592666 1.322916,1.322916 0,0.73025 -0.592666,1.322917 -1.322916,1.322917 z m 0,-2.116667 c -0.439209,0 -0.79375,0.354542 -0.79375,0.79375 0,0.439209 0.354541,0.79375 0.79375,0.79375 0.439208,0 0.79375,-0.354541 0.79375,-0.79375 0,-0.439208 -0.354542,-0.79375 -0.79375,-0.79375 z"
       inkscape:connector-curvature="0"
       style="fill:#000000;stroke-width:0.26458332;fill-opacity:1;stroke:none;stroke-opacity:1"
       clip-path="url(#clipPath4723)" />
    <path
       id="path3701-0"
       d="m 83.910715,81.081101 c -1.322917,0 -2.452688,0.822855 -2.910417,1.984375 0.457729,1.161521 1.5875,1.984375 2.910417,1.984375 1.322916,0 2.452687,-0.822854 2.910416,-1.984375 -0.457729,-1.16152 -1.5875,-1.984375 -2.910416,-1.984375 z m 0,3.307292 c -0.73025,0 -1.322917,-0.592667 -1.322917,-1.322917 0,-0.73025 0.592667,-1.322916 1.322917,-1.322916 0.73025,0 1.322916,0.592666 1.322916,1.322916 0,0.73025 -0.592666,1.322917 -1.322916,1.322917 z m 0,-2.116667 c -0.439209,0 -0.79375,0.354542 -0.79375,0.79375 0,0.439209 0.354541,0.79375 0.79375,0.79375 0.439208,0 0.79375,-0.354541 0.79375,-0.79375 0,-0.439208 -0.354542,-0.79375 -0.79375,-0.79375 z"
       inkscape:connector-curvature="0"
       style="fill:#000000;fill-opacity:1;stroke:none;stroke-width:0.26458332;stroke-opacity:1"
       clip-path="url(#clipPath4708)" />
    <path
       clip-path="url(#clipPath4708)"
       style="fill:#000000;fill-opacity:1;stroke:none;stroke-width:0.26458332;stroke-opacity:1"
       inkscape:connector-curvature="0"
       d="m 83.910715,81.081101 c -1.322917,0 -2.452688,0.822855 -2.910417,1.984375 0.457729,1.161521 1.5875,1.984375 2.910417,1.984375 1.322916,0 2.452687,-0.822854 2.910416,-1.984375 -0.457729,-1.16152 -1.5875,-1.984375 -2.910416,-1.984375 z m 0,3.307292 c -0.73025,0 -1.322917,-0.592667 -1.322917,-1.322917 0,-0.73025 0.592667,-1.322916 1.322917,-1.322916 0.73025,0 1.322916,0.592666 1.322916,1.322916 0,0.73025 -0.592666,1.322917 -1.322916,1.322917 z m 0,-2.116667 c -0.439209,0 -0.79375,0.354542 -0.79375,0.79375 0,0.439209 0.354541,0.79375 0.79375,0.79375 0.439208,0 0.79375,-0.354541 0.79375,-0.79375 0,-0.439208 -0.354542,-0.79375 -0.79375,-0.79375 z"
       id="path4737" />
    <rect
       style="fill:#000000;fill-opacity:1;stroke:none;stroke-width:0.21109506;stroke-opacity:1"
       id="rect4761"
       width="6.411674"
       height="0.59712696"
       x="112.13124"
       y="27.294649"
       rx="0.075678326"
       transform="matrix(0.85483143,0.5189058,-0.53376618,0.84563211,0,0)" />
  </g>
  <g
     inkscape:groupmode="layer"
     id="layer2"
     inkscape:label="Layer 2" />
</svg>
